<svg width="1024" height="753" viewBox="0 0 1024 753" fill="none" xmlns="http://www.w3.org/2000/svg">
<g opacity="0.2" filter="url(#filter0_f_175_198)">
<ellipse cx="452.5" cy="200" rx="670.5" ry="350" fill="#B3A659"/>
</g>
<path d="M-26.9651 436C-25.4698 436 -24.3378 436.63 -23.5692 437.891C-22.7866 439.138 -22.3953 440.953 -22.3953 443.336C-22.3953 445.719 -22.7866 447.541 -23.5692 448.802C-24.3378 450.063 -25.4698 450.693 -26.9651 450.693C-28.4464 450.693 -29.5784 450.063 -30.361 448.802C-31.1436 447.541 -31.5349 445.719 -31.5349 443.336C-31.5349 440.967 -31.1436 439.152 -30.361 437.891C-29.5784 436.63 -28.4464 436 -26.9651 436ZM-30.0466 443.336C-30.0466 445.026 -29.8928 446.35 -29.5854 447.306L-24.9317 438.099C-25.4209 437.448 -26.0987 437.122 -26.9651 437.122C-27.9294 437.122 -28.684 437.635 -29.229 438.66C-29.7741 439.672 -30.0466 441.23 -30.0466 443.336ZM-26.9651 449.55C-25.9869 449.55 -25.2252 449.044 -24.6802 448.033C-24.1352 447.008 -23.8627 445.442 -23.8627 443.336C-23.8627 441.549 -24.0373 440.163 -24.3867 439.18L-29.0404 448.469C-28.5373 449.19 -27.8455 449.55 -26.9651 449.55Z" fill="url(#paint0_linear_175_198)" fill-opacity="0.6"/>
<path d="M-25.7074 473.135H-22.6259V474.236H-30.6126V473.135H-27.0489V461.455L-30.4449 463.471L-31.0318 462.536L-26.8393 459.959H-25.7074V473.135Z" fill="url(#paint1_linear_175_198)" fill-opacity="0.6"/>
<path d="M-26.9651 483.502C-25.4698 483.502 -24.3378 484.133 -23.5692 485.393C-22.7866 486.64 -22.3953 488.455 -22.3953 490.838C-22.3953 493.221 -22.7866 495.043 -23.5692 496.304C-24.3378 497.565 -25.4698 498.195 -26.9651 498.195C-28.4464 498.195 -29.5784 497.565 -30.361 496.304C-31.1436 495.043 -31.5349 493.221 -31.5349 490.838C-31.5349 488.469 -31.1436 486.654 -30.361 485.393C-29.5784 484.133 -28.4464 483.502 -26.9651 483.502ZM-30.0466 490.838C-30.0466 492.529 -29.8928 493.852 -29.5854 494.808L-24.9317 485.601C-25.4209 484.95 -26.0987 484.624 -26.9651 484.624C-27.9294 484.624 -28.684 485.137 -29.229 486.162C-29.7741 487.174 -30.0466 488.732 -30.0466 490.838ZM-26.9651 497.052C-25.9869 497.052 -25.2252 496.546 -24.6802 495.535C-24.1352 494.51 -23.8627 492.944 -23.8627 490.838C-23.8627 489.051 -24.0373 487.665 -24.3867 486.682L-29.0404 495.971C-28.5373 496.692 -27.8455 497.052 -26.9651 497.052Z" fill="url(#paint2_linear_175_198)" fill-opacity="0.6"/>
<path d="M-25.7074 520.637H-22.6259V521.738H-30.6126V520.637H-27.0489V508.957L-30.4449 510.973L-31.0318 510.038L-26.8393 507.461H-25.7074V520.637Z" fill="url(#paint3_linear_175_198)" fill-opacity="0.6"/>
<path d="M-25.7074 544.388H-22.6259V545.489H-30.6126V544.388H-27.0489V532.708L-30.4449 534.724L-31.0318 533.789L-26.8393 531.212H-25.7074V544.388Z" fill="url(#paint4_linear_175_198)" fill-opacity="0.6"/>
<path d="M-26.9651 554.755C-25.4698 554.755 -24.3378 555.386 -23.5692 556.646C-22.7866 557.893 -22.3953 559.708 -22.3953 562.091C-22.3953 564.474 -22.7866 566.296 -23.5692 567.557C-24.3378 568.818 -25.4698 569.448 -26.9651 569.448C-28.4464 569.448 -29.5784 568.818 -30.361 567.557C-31.1436 566.296 -31.5349 564.474 -31.5349 562.091C-31.5349 559.722 -31.1436 557.907 -30.361 556.646C-29.5784 555.386 -28.4464 554.755 -26.9651 554.755ZM-30.0466 562.091C-30.0466 563.782 -29.8928 565.105 -29.5854 566.061L-24.9317 556.854C-25.4209 556.203 -26.0987 555.878 -26.9651 555.878C-27.9294 555.878 -28.684 556.39 -29.229 557.415C-29.7741 558.427 -30.0466 559.985 -30.0466 562.091ZM-26.9651 568.305C-25.9869 568.305 -25.2252 567.8 -24.6802 566.788C-24.1352 565.763 -23.8627 564.197 -23.8627 562.091C-23.8627 560.304 -24.0373 558.919 -24.3867 557.935L-29.0404 567.225C-28.5373 567.945 -27.8455 568.305 -26.9651 568.305Z" fill="url(#paint5_linear_175_198)" fill-opacity="0.6"/>
<path d="M-25.7074 591.89H-22.6259V592.992H-30.6126V591.89H-27.0489V580.21L-30.4449 582.226L-31.0318 581.291L-26.8393 578.714H-25.7074V591.89Z" fill="url(#paint6_linear_175_198)" fill-opacity="0.6"/>
<path d="M-26.9651 602.257C-25.4698 602.257 -24.3378 602.888 -23.5692 604.149C-22.7866 605.396 -22.3953 607.211 -22.3953 609.594C-22.3953 611.977 -22.7866 613.798 -23.5692 615.059C-24.3378 616.32 -25.4698 616.95 -26.9651 616.95C-28.4464 616.95 -29.5784 616.32 -30.361 615.059C-31.1436 613.798 -31.5349 611.977 -31.5349 609.594C-31.5349 607.224 -31.1436 605.409 -30.361 604.149C-29.5784 602.888 -28.4464 602.257 -26.9651 602.257ZM-30.0466 609.594C-30.0466 611.284 -29.8928 612.607 -29.5854 613.563L-24.9317 604.356C-25.4209 603.705 -26.0987 603.38 -26.9651 603.38C-27.9294 603.38 -28.684 603.892 -29.229 604.918C-29.7741 605.929 -30.0466 607.488 -30.0466 609.594ZM-26.9651 615.807C-25.9869 615.807 -25.2252 615.302 -24.6802 614.29C-24.1352 613.265 -23.8627 611.699 -23.8627 609.594C-23.8627 607.806 -24.0373 606.421 -24.3867 605.437L-29.0404 614.727C-28.5373 615.447 -27.8455 615.807 -26.9651 615.807Z" fill="url(#paint7_linear_175_198)" fill-opacity="0.6"/>
<path d="M-26.9651 626.008C-25.4698 626.008 -24.3378 626.639 -23.5692 627.9C-22.7866 629.147 -22.3953 630.962 -22.3953 633.345C-22.3953 635.728 -22.7866 637.549 -23.5692 638.81C-24.3378 640.071 -25.4698 640.701 -26.9651 640.701C-28.4464 640.701 -29.5784 640.071 -30.361 638.81C-31.1436 637.549 -31.5349 635.728 -31.5349 633.345C-31.5349 630.975 -31.1436 629.16 -30.361 627.9C-29.5784 626.639 -28.4464 626.008 -26.9651 626.008ZM-30.0466 633.345C-30.0466 635.035 -29.8928 636.358 -29.5854 637.314L-24.9317 628.107C-25.4209 627.456 -26.0987 627.131 -26.9651 627.131C-27.9294 627.131 -28.684 627.643 -29.229 628.669C-29.7741 629.68 -30.0466 631.239 -30.0466 633.345ZM-26.9651 639.558C-25.9869 639.558 -25.2252 639.053 -24.6802 638.041C-24.1352 637.016 -23.8627 635.451 -23.8627 633.345C-23.8627 631.557 -24.0373 630.172 -24.3867 629.188L-29.0404 638.478C-28.5373 639.198 -27.8455 639.558 -26.9651 639.558Z" fill="url(#paint8_linear_175_198)" fill-opacity="0.6"/>
<path d="M-25.7074 663.143H-22.6259V664.245H-30.6126V663.143H-27.0489V651.464L-30.4449 653.48L-31.0318 652.544L-26.8393 649.967H-25.7074V663.143Z" fill="url(#paint9_linear_175_198)" fill-opacity="0.6"/>
<path d="M-26.9651 673.511C-25.4698 673.511 -24.3378 674.141 -23.5692 675.402C-22.7866 676.649 -22.3953 678.464 -22.3953 680.847C-22.3953 683.23 -22.7866 685.052 -23.5692 686.312C-24.3378 687.573 -25.4698 688.204 -26.9651 688.204C-28.4464 688.204 -29.5784 687.573 -30.361 686.312C-31.1436 685.052 -31.5349 683.23 -31.5349 680.847C-31.5349 678.478 -31.1436 676.663 -30.361 675.402C-29.5784 674.141 -28.4464 673.511 -26.9651 673.511ZM-30.0466 680.847C-30.0466 682.537 -29.8928 683.86 -29.5854 684.816L-24.9317 675.61C-25.4209 674.958 -26.0987 674.633 -26.9651 674.633C-27.9294 674.633 -28.684 675.145 -29.229 676.171C-29.7741 677.182 -30.0466 678.741 -30.0466 680.847ZM-26.9651 687.061C-25.9869 687.061 -25.2252 686.555 -24.6802 685.543C-24.1352 684.518 -23.8627 682.953 -23.8627 680.847C-23.8627 679.059 -24.0373 677.674 -24.3867 676.69L-29.0404 685.98C-28.5373 686.7 -27.8455 687.061 -26.9651 687.061Z" fill="url(#paint10_linear_175_198)" fill-opacity="0.6"/>
<path d="M-25.7074 710.645H-22.6259V711.747H-30.6126V710.645H-27.0489V698.966L-30.4449 700.982L-31.0318 700.046L-26.8393 697.469H-25.7074V710.645Z" fill="url(#paint11_linear_175_198)" fill-opacity="0.6"/>
<path d="M-25.7074 734.396H-22.6259V735.498H-30.6126V734.396H-27.0489V722.717L-30.4449 724.733L-31.0318 723.798L-26.8393 721.221H-25.7074V734.396Z" fill="url(#paint12_linear_175_198)" fill-opacity="0.6"/>
<path d="M11.9651 483.502C13.4604 483.502 14.5924 484.133 15.361 485.393C16.1436 486.64 16.5349 488.455 16.5349 490.838C16.5349 493.221 16.1436 495.043 15.361 496.304C14.5924 497.565 13.4604 498.195 11.9651 498.195C10.4838 498.195 9.35178 497.565 8.56919 496.304C7.78659 495.043 7.39529 493.221 7.39529 490.838C7.39529 488.469 7.78659 486.654 8.56919 485.393C9.35178 484.133 10.4838 483.502 11.9651 483.502ZM8.88362 490.838C8.88362 492.529 9.03735 493.852 9.3448 494.808L13.9985 485.601C13.5093 484.95 12.8315 484.624 11.9651 484.624C11.0008 484.624 10.2462 485.137 9.70116 486.162C9.15613 487.174 8.88362 488.732 8.88362 490.838ZM11.9651 497.052C12.9433 497.052 13.705 496.546 14.25 495.535C14.795 494.51 15.0675 492.944 15.0675 490.838C15.0675 489.051 14.8928 487.665 14.5435 486.682L9.88982 495.971C10.3929 496.692 11.0847 497.052 11.9651 497.052Z" fill="url(#paint13_linear_175_198)" fill-opacity="0.6"/>
<path d="M13.2228 520.637H16.3043V521.738H8.31764V520.637H11.8812V508.957L8.48534 510.973L7.89839 510.038L12.0909 507.461H13.2228V520.637Z" fill="url(#paint14_linear_175_198)" fill-opacity="0.6"/>
<path d="M11.9651 531.004C13.4604 531.004 14.5924 531.635 15.361 532.895C16.1436 534.142 16.5349 535.957 16.5349 538.34C16.5349 540.723 16.1436 542.545 15.361 543.806C14.5924 545.067 13.4604 545.697 11.9651 545.697C10.4838 545.697 9.35178 545.067 8.56919 543.806C7.78659 542.545 7.39529 540.723 7.39529 538.34C7.39529 535.971 7.78659 534.156 8.56919 532.895C9.35178 531.635 10.4838 531.004 11.9651 531.004ZM8.88362 538.34C8.88362 540.031 9.03735 541.354 9.3448 542.31L13.9985 533.103C13.5093 532.452 12.8315 532.126 11.9651 532.126C11.0008 532.126 10.2462 532.639 9.70116 533.664C9.15613 534.676 8.88362 536.234 8.88362 538.34ZM11.9651 544.554C12.9433 544.554 13.705 544.049 14.25 543.037C14.795 542.012 15.0675 540.446 15.0675 538.34C15.0675 536.553 14.8928 535.168 14.5435 534.184L9.88982 543.474C10.3929 544.194 11.0847 544.554 11.9651 544.554Z" fill="url(#paint15_linear_175_198)" fill-opacity="0.6"/>
<path d="M11.9651 554.755C13.4604 554.755 14.5924 555.386 15.361 556.646C16.1436 557.893 16.5349 559.708 16.5349 562.091C16.5349 564.474 16.1436 566.296 15.361 567.557C14.5924 568.818 13.4604 569.448 11.9651 569.448C10.4838 569.448 9.35178 568.818 8.56919 567.557C7.78659 566.296 7.39529 564.474 7.39529 562.091C7.39529 559.722 7.78659 557.907 8.56919 556.646C9.35178 555.386 10.4838 554.755 11.9651 554.755ZM8.88362 562.091C8.88362 563.782 9.03735 565.105 9.3448 566.061L13.9985 556.854C13.5093 556.203 12.8315 555.878 11.9651 555.878C11.0008 555.878 10.2462 556.39 9.70116 557.415C9.15613 558.427 8.88362 559.985 8.88362 562.091ZM11.9651 568.305C12.9433 568.305 13.705 567.8 14.25 566.788C14.795 565.763 15.0675 564.197 15.0675 562.091C15.0675 560.304 14.8928 558.919 14.5435 557.935L9.88982 567.225C10.3929 567.945 11.0847 568.305 11.9651 568.305Z" fill="url(#paint16_linear_175_198)" fill-opacity="0.6"/>
<path d="M13.2228 591.89H16.3043V592.992H8.31764V591.89H11.8812V580.21L8.48534 582.226L7.89839 581.291L12.0909 578.714H13.2228V591.89Z" fill="url(#paint17_linear_175_198)" fill-opacity="0.6"/>
<path d="M11.9651 602.257C13.4604 602.257 14.5924 602.888 15.361 604.149C16.1436 605.396 16.5349 607.211 16.5349 609.594C16.5349 611.977 16.1436 613.798 15.361 615.059C14.5924 616.32 13.4604 616.95 11.9651 616.95C10.4838 616.95 9.35178 616.32 8.56919 615.059C7.78659 613.798 7.39529 611.977 7.39529 609.594C7.39529 607.224 7.78659 605.409 8.56919 604.149C9.35178 602.888 10.4838 602.257 11.9651 602.257ZM8.88362 609.594C8.88362 611.284 9.03735 612.607 9.3448 613.563L13.9985 604.356C13.5093 603.705 12.8315 603.38 11.9651 603.38C11.0008 603.38 10.2462 603.892 9.70116 604.918C9.15613 605.929 8.88362 607.488 8.88362 609.594ZM11.9651 615.807C12.9433 615.807 13.705 615.302 14.25 614.29C14.795 613.265 15.0675 611.699 15.0675 609.594C15.0675 607.806 14.8928 606.421 14.5435 605.437L9.88982 614.727C10.3929 615.447 11.0847 615.807 11.9651 615.807Z" fill="url(#paint18_linear_175_198)" fill-opacity="0.6"/>
<path d="M13.2228 639.392H16.3043V640.494H8.31764V639.392H11.8812V627.713L8.48534 629.728L7.89839 628.793L12.0909 626.216H13.2228V639.392Z" fill="url(#paint19_linear_175_198)" fill-opacity="0.6"/>
<path d="M11.9651 649.76C13.4604 649.76 14.5924 650.39 15.361 651.651C16.1436 652.898 16.5349 654.713 16.5349 657.096C16.5349 659.479 16.1436 661.301 15.361 662.561C14.5924 663.822 13.4604 664.453 11.9651 664.453C10.4838 664.453 9.35178 663.822 8.56919 662.561C7.78659 661.301 7.39529 659.479 7.39529 657.096C7.39529 654.726 7.78659 652.911 8.56919 651.651C9.35178 650.39 10.4838 649.76 11.9651 649.76ZM8.88362 657.096C8.88362 658.786 9.03735 660.109 9.3448 661.065L13.9985 651.859C13.5093 651.207 12.8315 650.882 11.9651 650.882C11.0008 650.882 10.2462 651.394 9.70116 652.42C9.15613 653.431 8.88362 654.99 8.88362 657.096ZM11.9651 663.31C12.9433 663.31 13.705 662.804 14.25 661.792C14.795 660.767 15.0675 659.202 15.0675 657.096C15.0675 655.308 14.8928 653.923 14.5435 652.939L9.88982 662.229C10.3929 662.949 11.0847 663.31 11.9651 663.31Z" fill="url(#paint20_linear_175_198)" fill-opacity="0.6"/>
<path d="M11.9651 673.511C13.4604 673.511 14.5924 674.141 15.361 675.402C16.1436 676.649 16.5349 678.464 16.5349 680.847C16.5349 683.23 16.1436 685.052 15.361 686.312C14.5924 687.573 13.4604 688.204 11.9651 688.204C10.4838 688.204 9.35178 687.573 8.56919 686.312C7.78659 685.052 7.39529 683.23 7.39529 680.847C7.39529 678.478 7.78659 676.663 8.56919 675.402C9.35178 674.141 10.4838 673.511 11.9651 673.511ZM8.88362 680.847C8.88362 682.537 9.03735 683.86 9.3448 684.816L13.9985 675.61C13.5093 674.958 12.8315 674.633 11.9651 674.633C11.0008 674.633 10.2462 675.145 9.70116 676.171C9.15613 677.182 8.88362 678.741 8.88362 680.847ZM11.9651 687.061C12.9433 687.061 13.705 686.555 14.25 685.543C14.795 684.518 15.0675 682.953 15.0675 680.847C15.0675 679.059 14.8928 677.674 14.5435 676.69L9.88982 685.98C10.3929 686.7 11.0847 687.061 11.9651 687.061Z" fill="url(#paint21_linear_175_198)" fill-opacity="0.6"/>
<path d="M13.2228 710.645H16.3043V711.747H8.31764V710.645H11.8812V698.966L8.48534 700.982L7.89839 700.046L12.0909 697.469H13.2228V710.645Z" fill="url(#paint22_linear_175_198)" fill-opacity="0.6"/>
<path d="M11.9651 721.013C13.4604 721.013 14.5924 721.643 15.361 722.904C16.1436 724.151 16.5349 725.966 16.5349 728.349C16.5349 730.732 16.1436 732.554 15.361 733.815C14.5924 735.075 13.4604 735.706 11.9651 735.706C10.4838 735.706 9.35178 735.075 8.56919 733.815C7.78659 732.554 7.39529 730.732 7.39529 728.349C7.39529 725.98 7.78659 724.165 8.56919 722.904C9.35178 721.643 10.4838 721.013 11.9651 721.013ZM8.88362 728.349C8.88362 730.039 9.03735 731.362 9.3448 732.318L13.9985 723.112C13.5093 722.461 12.8315 722.135 11.9651 722.135C11.0008 722.135 10.2462 722.648 9.70116 723.673C9.15613 724.684 8.88362 726.243 8.88362 728.349ZM11.9651 734.563C12.9433 734.563 13.705 734.057 14.25 733.046C14.795 732.02 15.0675 730.455 15.0675 728.349C15.0675 726.562 14.8928 725.176 14.5435 724.192L9.88982 733.482C10.3929 734.202 11.0847 734.563 11.9651 734.563Z" fill="url(#paint23_linear_175_198)" fill-opacity="0.6"/>
<path d="M13.2228 758.148H16.3043V759.249H8.31764V758.148H11.8812V746.468L8.48534 748.484L7.89839 747.549L12.0909 744.972H13.2228V758.148Z" fill="url(#paint24_linear_175_198)" fill-opacity="0.6"/>
<path d="M13.2228 781.899H16.3043V783H8.31764V781.899H11.8812V770.219L8.48534 772.235L7.89839 771.3L12.0909 768.723H13.2228V781.899Z" fill="url(#paint25_linear_175_198)" fill-opacity="0.6"/>
<path d="M-46.4302 507.253C-44.9349 507.253 -43.8029 507.884 -43.0343 509.144C-42.2517 510.391 -41.8604 512.206 -41.8604 514.589C-41.8604 516.972 -42.2517 518.794 -43.0343 520.055C-43.8029 521.316 -44.9349 521.946 -46.4302 521.946C-47.9115 521.946 -49.0435 521.316 -49.8261 520.055C-50.6087 518.794 -51 516.972 -51 514.589C-51 512.22 -50.6087 510.405 -49.8261 509.144C-49.0435 507.884 -47.9115 507.253 -46.4302 507.253ZM-49.5117 514.589C-49.5117 516.28 -49.3579 517.603 -49.0505 518.559L-44.3968 509.352C-44.886 508.701 -45.5637 508.375 -46.4302 508.375C-47.3945 508.375 -48.1491 508.888 -48.6941 509.913C-49.2392 510.925 -49.5117 512.483 -49.5117 514.589ZM-46.4302 520.803C-45.4519 520.803 -44.6903 520.297 -44.1453 519.286C-43.6003 518.261 -43.3278 516.695 -43.3278 514.589C-43.3278 512.802 -43.5024 511.417 -43.8518 510.433L-48.5055 519.722C-48.0024 520.443 -47.3106 520.803 -46.4302 520.803Z" fill="url(#paint26_linear_175_198)" fill-opacity="0.6"/>
<path d="M-46.4302 531.004C-44.9349 531.004 -43.8029 531.635 -43.0343 532.895C-42.2517 534.142 -41.8604 535.957 -41.8604 538.34C-41.8604 540.723 -42.2517 542.545 -43.0343 543.806C-43.8029 545.067 -44.9349 545.697 -46.4302 545.697C-47.9115 545.697 -49.0435 545.067 -49.8261 543.806C-50.6087 542.545 -51 540.723 -51 538.34C-51 535.971 -50.6087 534.156 -49.8261 532.895C-49.0435 531.635 -47.9115 531.004 -46.4302 531.004ZM-49.5117 538.34C-49.5117 540.031 -49.3579 541.354 -49.0505 542.31L-44.3968 533.103C-44.886 532.452 -45.5637 532.126 -46.4302 532.126C-47.3945 532.126 -48.1491 532.639 -48.6941 533.664C-49.2392 534.676 -49.5117 536.234 -49.5117 538.34ZM-46.4302 544.554C-45.4519 544.554 -44.6903 544.049 -44.1453 543.037C-43.6003 542.012 -43.3278 540.446 -43.3278 538.34C-43.3278 536.553 -43.5024 535.168 -43.8518 534.184L-48.5055 543.474C-48.0024 544.194 -47.3106 544.554 -46.4302 544.554Z" fill="url(#paint27_linear_175_198)" fill-opacity="0.6"/>
<path d="M-45.1724 568.139H-42.091V569.24H-50.0777V568.139H-46.514V556.459L-49.91 558.475L-50.4969 557.54L-46.3044 554.963H-45.1724V568.139Z" fill="url(#paint28_linear_175_198)" fill-opacity="0.6"/>
<path d="M-46.4302 578.506C-44.9349 578.506 -43.8029 579.137 -43.0343 580.398C-42.2517 581.644 -41.8604 583.459 -41.8604 585.842C-41.8604 588.225 -42.2517 590.047 -43.0343 591.308C-43.8029 592.569 -44.9349 593.199 -46.4302 593.199C-47.9115 593.199 -49.0435 592.569 -49.8261 591.308C-50.6087 590.047 -51 588.225 -51 585.842C-51 583.473 -50.6087 581.658 -49.8261 580.398C-49.0435 579.137 -47.9115 578.506 -46.4302 578.506ZM-49.5117 585.842C-49.5117 587.533 -49.3579 588.856 -49.0505 589.812L-44.3968 580.605C-44.886 579.954 -45.5637 579.629 -46.4302 579.629C-47.3945 579.629 -48.1491 580.141 -48.6941 581.166C-49.2392 582.178 -49.5117 583.737 -49.5117 585.842ZM-46.4302 592.056C-45.4519 592.056 -44.6903 591.551 -44.1453 590.539C-43.6003 589.514 -43.3278 587.948 -43.3278 585.842C-43.3278 584.055 -43.5024 582.67 -43.8518 581.686L-48.5055 590.976C-48.0024 591.696 -47.3106 592.056 -46.4302 592.056Z" fill="url(#paint29_linear_175_198)" fill-opacity="0.6"/>
<path d="M-45.1724 615.641H-42.091V616.743H-50.0777V615.641H-46.514V603.962L-49.91 605.977L-50.4969 605.042L-46.3044 602.465H-45.1724V615.641Z" fill="url(#paint30_linear_175_198)" fill-opacity="0.6"/>
<path d="M-45.1724 639.392H-42.091V640.494H-50.0777V639.392H-46.514V627.713L-49.91 629.728L-50.4969 628.793L-46.3044 626.216H-45.1724V639.392Z" fill="url(#paint31_linear_175_198)" fill-opacity="0.6"/>
<path d="M-6.24226 473.135H-3.16078V474.236H-11.1475V473.135H-7.58385V461.455L-10.9798 463.471L-11.5667 462.536L-7.37423 459.959H-6.24226V473.135Z" fill="url(#paint32_linear_175_198)" fill-opacity="0.6"/>
<path d="M-7.5 483.502C-6.00468 483.502 -4.87271 484.133 -4.10409 485.393C-3.32149 486.64 -2.9302 488.455 -2.9302 490.838C-2.9302 493.221 -3.32149 495.043 -4.10409 496.304C-4.87271 497.565 -6.00468 498.195 -7.5 498.195C-8.98134 498.195 -10.1133 497.565 -10.8959 496.304C-11.6785 495.043 -12.0698 493.221 -12.0698 490.838C-12.0698 488.469 -11.6785 486.654 -10.8959 485.393C-10.1133 484.133 -8.98134 483.502 -7.5 483.502ZM-10.5815 490.838C-10.5815 492.529 -10.4277 493.852 -10.1203 494.808L-5.46665 485.601C-5.95577 484.95 -6.63355 484.624 -7.5 484.624C-8.46427 484.624 -9.21892 485.137 -9.76394 486.162C-10.309 487.174 -10.5815 488.732 -10.5815 490.838ZM-7.5 497.052C-6.52175 497.052 -5.76012 496.546 -5.2151 495.535C-4.67007 494.51 -4.39756 492.944 -4.39756 490.838C-4.39756 489.051 -4.57225 487.665 -4.92162 486.682L-9.57528 495.971C-9.07218 496.692 -8.38042 497.052 -7.5 497.052Z" fill="url(#paint33_linear_175_198)" fill-opacity="0.6"/>
<path d="M-6.24226 520.637H-3.16078V521.738H-11.1475V520.637H-7.58385V508.957L-10.9798 510.973L-11.5667 510.038L-7.37423 507.461H-6.24226V520.637Z" fill="url(#paint34_linear_175_198)" fill-opacity="0.6"/>
<path d="M-6.24226 544.388H-3.16078V545.489H-11.1475V544.388H-7.58385V532.708L-10.9798 534.724L-11.5667 533.789L-7.37423 531.212H-6.24226V544.388Z" fill="url(#paint35_linear_175_198)" fill-opacity="0.6"/>
<path d="M-7.5 554.755C-6.00468 554.755 -4.87271 555.386 -4.10409 556.646C-3.32149 557.893 -2.9302 559.708 -2.9302 562.091C-2.9302 564.474 -3.32149 566.296 -4.10409 567.557C-4.87271 568.818 -6.00468 569.448 -7.5 569.448C-8.98134 569.448 -10.1133 568.818 -10.8959 567.557C-11.6785 566.296 -12.0698 564.474 -12.0698 562.091C-12.0698 559.722 -11.6785 557.907 -10.8959 556.646C-10.1133 555.386 -8.98134 554.755 -7.5 554.755ZM-10.5815 562.091C-10.5815 563.782 -10.4277 565.105 -10.1203 566.061L-5.46665 556.854C-5.95577 556.203 -6.63355 555.878 -7.5 555.878C-8.46427 555.878 -9.21892 556.39 -9.76394 557.415C-10.309 558.427 -10.5815 559.985 -10.5815 562.091ZM-7.5 568.305C-6.52175 568.305 -5.76012 567.8 -5.2151 566.788C-4.67007 565.763 -4.39756 564.197 -4.39756 562.091C-4.39756 560.304 -4.57225 558.919 -4.92162 557.935L-9.57528 567.225C-9.07218 567.945 -8.38042 568.305 -7.5 568.305Z" fill="url(#paint36_linear_175_198)" fill-opacity="0.6"/>
<path d="M-6.24226 591.89H-3.16078V592.992H-11.1475V591.89H-7.58385V580.21L-10.9798 582.226L-11.5667 581.291L-7.37423 578.714H-6.24226V591.89Z" fill="url(#paint37_linear_175_198)" fill-opacity="0.6"/>
<path d="M-6.24226 615.641H-3.16078V616.743H-11.1475V615.641H-7.58385V603.962L-10.9798 605.977L-11.5667 605.042L-7.37423 602.465H-6.24226V615.641Z" fill="url(#paint38_linear_175_198)" fill-opacity="0.6"/>
<path d="M-7.5 626.008C-6.00468 626.008 -4.87271 626.639 -4.10409 627.9C-3.32149 629.147 -2.9302 630.962 -2.9302 633.345C-2.9302 635.728 -3.32149 637.549 -4.10409 638.81C-4.87271 640.071 -6.00468 640.701 -7.5 640.701C-8.98134 640.701 -10.1133 640.071 -10.8959 638.81C-11.6785 637.549 -12.0698 635.728 -12.0698 633.345C-12.0698 630.975 -11.6785 629.16 -10.8959 627.9C-10.1133 626.639 -8.98134 626.008 -7.5 626.008ZM-10.5815 633.345C-10.5815 635.035 -10.4277 636.358 -10.1203 637.314L-5.46665 628.107C-5.95577 627.456 -6.63355 627.131 -7.5 627.131C-8.46427 627.131 -9.21892 627.643 -9.76394 628.669C-10.309 629.68 -10.5815 631.239 -10.5815 633.345ZM-7.5 639.558C-6.52175 639.558 -5.76012 639.053 -5.2151 638.041C-4.67007 637.016 -4.39756 635.451 -4.39756 633.345C-4.39756 631.557 -4.57225 630.172 -4.92162 629.188L-9.57528 638.478C-9.07218 639.198 -8.38042 639.558 -7.5 639.558Z" fill="url(#paint39_linear_175_198)" fill-opacity="0.6"/>
<path d="M-6.24226 663.143H-3.16078V664.245H-11.1475V663.143H-7.58385V651.464L-10.9798 653.48L-11.5667 652.544L-7.37423 649.967H-6.24226V663.143Z" fill="url(#paint40_linear_175_198)" fill-opacity="0.6"/>
<path d="M-7.5 673.511C-6.00468 673.511 -4.87271 674.141 -4.10409 675.402C-3.32149 676.649 -2.9302 678.464 -2.9302 680.847C-2.9302 683.23 -3.32149 685.052 -4.10409 686.312C-4.87271 687.573 -6.00468 688.204 -7.5 688.204C-8.98134 688.204 -10.1133 687.573 -10.8959 686.312C-11.6785 685.052 -12.0698 683.23 -12.0698 680.847C-12.0698 678.478 -11.6785 676.663 -10.8959 675.402C-10.1133 674.141 -8.98134 673.511 -7.5 673.511ZM-10.5815 680.847C-10.5815 682.537 -10.4277 683.86 -10.1203 684.816L-5.46665 675.61C-5.95577 674.958 -6.63355 674.633 -7.5 674.633C-8.46427 674.633 -9.21892 675.145 -9.76394 676.171C-10.309 677.182 -10.5815 678.741 -10.5815 680.847ZM-7.5 687.061C-6.52175 687.061 -5.76012 686.555 -5.2151 685.543C-4.67007 684.518 -4.39756 682.953 -4.39756 680.847C-4.39756 679.059 -4.57225 677.674 -4.92162 676.69L-9.57528 685.98C-9.07218 686.7 -8.38042 687.061 -7.5 687.061Z" fill="url(#paint41_linear_175_198)" fill-opacity="0.6"/>
<path d="M31.4302 459.751C32.9255 459.751 34.0575 460.381 34.8261 461.642C35.6087 462.889 36 464.704 36 467.087C36 469.47 35.6087 471.292 34.8261 472.553C34.0575 473.814 32.9255 474.444 31.4302 474.444C29.9489 474.444 28.8169 473.814 28.0343 472.553C27.2517 471.292 26.8604 469.47 26.8604 467.087C26.8604 464.718 27.2517 462.903 28.0343 461.642C28.8169 460.381 29.9489 459.751 31.4302 459.751ZM28.3487 467.087C28.3487 468.777 28.5024 470.101 28.8099 471.057L33.4636 461.85C32.9744 461.199 32.2966 460.873 31.4302 460.873C30.4659 460.873 29.7113 461.386 29.1663 462.411C28.6212 463.423 28.3487 464.981 28.3487 467.087ZM31.4302 473.301C32.4084 473.301 33.1701 472.795 33.7151 471.784C34.2601 470.759 34.5326 469.193 34.5326 467.087C34.5326 465.3 34.3579 463.914 34.0086 462.931L29.3549 472.22C29.858 472.941 30.5498 473.301 31.4302 473.301Z" fill="url(#paint42_linear_175_198)" fill-opacity="0.6"/>
<path d="M32.6879 496.886H35.7694V497.987H27.7827V496.886H31.3463V485.206L27.9504 487.222L27.3635 486.287L31.556 483.71H32.6879V496.886Z" fill="url(#paint43_linear_175_198)" fill-opacity="0.6"/>
<path d="M32.6879 520.637H35.7694V521.738H27.7827V520.637H31.3463V508.957L27.9504 510.973L27.3635 510.038L31.556 507.461H32.6879V520.637Z" fill="url(#paint44_linear_175_198)" fill-opacity="0.6"/>
<path d="M31.4302 531.004C32.9255 531.004 34.0575 531.635 34.8261 532.895C35.6087 534.142 36 535.957 36 538.34C36 540.723 35.6087 542.545 34.8261 543.806C34.0575 545.067 32.9255 545.697 31.4302 545.697C29.9489 545.697 28.8169 545.067 28.0343 543.806C27.2517 542.545 26.8604 540.723 26.8604 538.34C26.8604 535.971 27.2517 534.156 28.0343 532.895C28.8169 531.635 29.9489 531.004 31.4302 531.004ZM28.3487 538.34C28.3487 540.031 28.5024 541.354 28.8099 542.31L33.4636 533.103C32.9744 532.452 32.2966 532.126 31.4302 532.126C30.4659 532.126 29.7113 532.639 29.1663 533.664C28.6212 534.676 28.3487 536.234 28.3487 538.34ZM31.4302 544.554C32.4084 544.554 33.1701 544.049 33.7151 543.037C34.2601 542.012 34.5326 540.446 34.5326 538.34C34.5326 536.553 34.3579 535.168 34.0086 534.184L29.3549 543.474C29.858 544.194 30.5498 544.554 31.4302 544.554Z" fill="url(#paint45_linear_175_198)" fill-opacity="0.6"/>
<path d="M31.4302 554.755C32.9255 554.755 34.0575 555.386 34.8261 556.646C35.6087 557.893 36 559.708 36 562.091C36 564.474 35.6087 566.296 34.8261 567.557C34.0575 568.818 32.9255 569.448 31.4302 569.448C29.9489 569.448 28.8169 568.818 28.0343 567.557C27.2517 566.296 26.8604 564.474 26.8604 562.091C26.8604 559.722 27.2517 557.907 28.0343 556.646C28.8169 555.386 29.9489 554.755 31.4302 554.755ZM28.3487 562.091C28.3487 563.782 28.5024 565.105 28.8099 566.061L33.4636 556.854C32.9744 556.203 32.2966 555.878 31.4302 555.878C30.4659 555.878 29.7113 556.39 29.1663 557.415C28.6212 558.427 28.3487 559.985 28.3487 562.091ZM31.4302 568.305C32.4084 568.305 33.1701 567.8 33.7151 566.788C34.2601 565.763 34.5326 564.197 34.5326 562.091C34.5326 560.304 34.3579 558.919 34.0086 557.935L29.3549 567.225C29.858 567.945 30.5498 568.305 31.4302 568.305Z" fill="url(#paint46_linear_175_198)" fill-opacity="0.6"/>
<g opacity="0.6">
<path d="M859.93 136C861.356 136 862.436 136.605 863.17 137.815C863.916 139.011 864.29 140.753 864.29 143.04C864.29 145.327 863.916 147.075 863.17 148.285C862.436 149.495 861.356 150.1 859.93 150.1C858.517 150.1 857.437 149.495 856.69 148.285C855.943 147.075 855.57 145.327 855.57 143.04C855.57 140.767 855.943 139.025 856.69 137.815C857.437 136.605 858.517 136 859.93 136ZM856.99 143.04C856.99 144.662 857.137 145.932 857.43 146.849L861.87 138.014C861.403 137.389 860.756 137.077 859.93 137.077C859.01 137.077 858.29 137.569 857.77 138.553C857.25 139.523 856.99 141.019 856.99 143.04ZM859.93 149.003C860.863 149.003 861.59 148.518 862.11 147.547C862.63 146.564 862.89 145.061 862.89 143.04C862.89 141.325 862.723 139.995 862.39 139.051L857.95 147.966C858.43 148.658 859.09 149.003 859.93 149.003Z" fill="url(#paint47_linear_175_198)"/>
<path d="M861.13 171.637H864.07V172.694H856.45V171.637H859.85V160.428L856.61 162.363L856.05 161.465L860.05 158.992H861.13V171.637Z" fill="url(#paint48_linear_175_198)"/>
<path d="M859.93 181.586C861.356 181.586 862.436 182.191 863.17 183.4C863.916 184.597 864.29 186.339 864.29 188.626C864.29 190.913 863.916 192.661 863.17 193.871C862.436 195.081 861.356 195.686 859.93 195.686C858.517 195.686 857.437 195.081 856.69 193.871C855.943 192.661 855.57 190.913 855.57 188.626C855.57 186.352 855.943 184.61 856.69 183.4C857.437 182.191 858.517 181.586 859.93 181.586ZM856.99 188.626C856.99 190.248 857.137 191.518 857.43 192.435L861.87 183.6C861.403 182.975 860.756 182.663 859.93 182.663C859.01 182.663 858.29 183.155 857.77 184.138C857.25 185.109 856.99 186.605 856.99 188.626ZM859.93 194.589C860.863 194.589 861.59 194.104 862.11 193.133C862.63 192.149 862.89 190.647 862.89 188.626C862.89 186.911 862.723 185.581 862.39 184.637L857.95 193.552C858.43 194.243 859.09 194.589 859.93 194.589Z" fill="url(#paint49_linear_175_198)"/>
<path d="M861.13 217.222H864.07V218.279H856.45V217.222H859.85V206.014L856.61 207.948L856.05 207.051L860.05 204.578H861.13V217.222Z" fill="url(#paint50_linear_175_198)"/>
<path d="M861.13 240.015H864.07V241.072H856.45V240.015H859.85V228.807L856.61 230.741L856.05 229.844L860.05 227.371H861.13V240.015Z" fill="url(#paint51_linear_175_198)"/>
<path d="M859.93 249.964C861.356 249.964 862.436 250.569 863.17 251.779C863.916 252.976 864.29 254.717 864.29 257.004C864.29 259.291 863.916 261.039 863.17 262.249C862.436 263.459 861.356 264.064 859.93 264.064C858.517 264.064 857.437 263.459 856.69 262.249C855.943 261.039 855.57 259.291 855.57 257.004C855.57 254.731 855.943 252.989 856.69 251.779C857.437 250.569 858.517 249.964 859.93 249.964ZM856.99 257.004C856.99 258.626 857.137 259.896 857.43 260.813L861.87 251.978C861.403 251.353 860.756 251.041 859.93 251.041C859.01 251.041 858.29 251.533 857.77 252.517C857.25 253.487 856.99 254.983 856.99 257.004ZM859.93 262.967C860.863 262.967 861.59 262.482 862.11 261.511C862.63 260.528 862.89 259.025 862.89 257.004C862.89 255.289 862.723 253.959 862.39 253.015L857.95 261.93C858.43 262.622 859.09 262.967 859.93 262.967Z" fill="url(#paint52_linear_175_198)"/>
<path d="M861.13 285.601H864.07V286.658H856.45V285.601H859.85V274.392L856.61 276.327L856.05 275.429L860.05 272.956H861.13V285.601Z" fill="url(#paint53_linear_175_198)"/>
<path d="M859.93 295.55C861.356 295.55 862.436 296.155 863.17 297.365C863.916 298.561 864.29 300.303 864.29 302.59C864.29 304.877 863.916 306.625 863.17 307.835C862.436 309.045 861.356 309.65 859.93 309.65C858.517 309.65 857.437 309.045 856.69 307.835C855.943 306.625 855.57 304.877 855.57 302.59C855.57 300.316 855.943 298.574 856.69 297.365C857.437 296.155 858.517 295.55 859.93 295.55ZM856.99 302.59C856.99 304.212 857.137 305.482 857.43 306.399L861.87 297.564C861.403 296.939 860.756 296.627 859.93 296.627C859.01 296.627 858.29 297.119 857.77 298.102C857.25 299.073 856.99 300.569 856.99 302.59ZM859.93 308.553C860.863 308.553 861.59 308.068 862.11 307.097C862.63 306.113 862.89 304.611 862.89 302.59C862.89 300.875 862.723 299.545 862.39 298.601L857.95 307.516C858.43 308.207 859.09 308.553 859.93 308.553Z" fill="url(#paint54_linear_175_198)"/>
<path d="M859.93 318.342C861.356 318.342 862.436 318.947 863.17 320.157C863.916 321.354 864.29 323.096 864.29 325.383C864.29 327.669 863.916 329.418 863.17 330.628C862.436 331.838 861.356 332.443 859.93 332.443C858.517 332.443 857.437 331.838 856.69 330.628C855.943 329.418 855.57 327.669 855.57 325.383C855.57 323.109 855.943 321.367 856.69 320.157C857.437 318.947 858.517 318.342 859.93 318.342ZM856.99 325.383C856.99 327.005 857.137 328.274 857.43 329.192L861.87 320.357C861.403 319.732 860.756 319.419 859.93 319.419C859.01 319.419 858.29 319.911 857.77 320.895C857.25 321.866 856.99 323.362 856.99 325.383ZM859.93 331.346C860.863 331.346 861.59 330.86 862.11 329.89C862.63 328.906 862.89 327.404 862.89 325.383C862.89 323.667 862.723 322.338 862.39 321.394L857.95 330.309C858.43 331 859.09 331.346 859.93 331.346Z" fill="url(#paint55_linear_175_198)"/>
<path d="M861.13 353.979H864.07V355.036H856.45V353.979H859.85V342.771L856.61 344.705L856.05 343.808L860.05 341.335H861.13V353.979Z" fill="url(#paint56_linear_175_198)"/>
<path d="M859.93 363.928C861.356 363.928 862.436 364.533 863.17 365.743C863.916 366.94 864.29 368.681 864.29 370.968C864.29 373.255 863.916 375.003 863.17 376.213C862.436 377.423 861.356 378.028 859.93 378.028C858.517 378.028 857.437 377.423 856.69 376.213C855.943 375.003 855.57 373.255 855.57 370.968C855.57 368.695 855.943 366.953 856.69 365.743C857.437 364.533 858.517 363.928 859.93 363.928ZM856.99 370.968C856.99 372.59 857.137 373.86 857.43 374.777L861.87 365.942C861.403 365.317 860.756 365.005 859.93 365.005C859.01 365.005 858.29 365.497 857.77 366.481C857.25 367.451 856.99 368.947 856.99 370.968ZM859.93 376.931C860.863 376.931 861.59 376.446 862.11 375.475C862.63 374.492 862.89 372.989 862.89 370.968C862.89 369.253 862.723 367.923 862.39 366.979L857.95 375.894C858.43 376.586 859.09 376.931 859.93 376.931Z" fill="url(#paint57_linear_175_198)"/>
<path d="M861.13 399.565H864.07V400.622H856.45V399.565H859.85V388.356L856.61 390.291L856.05 389.393L860.05 386.92H861.13V399.565Z" fill="url(#paint58_linear_175_198)"/>
<path d="M861.13 422.357H864.07V423.414H856.45V422.357H859.85V411.149L856.61 413.084L856.05 412.186L860.05 409.713H861.13V422.357Z" fill="url(#paint59_linear_175_198)"/>
<path d="M897.07 181.586C898.497 181.586 899.577 182.191 900.31 183.4C901.057 184.597 901.43 186.339 901.43 188.626C901.43 190.913 901.057 192.661 900.31 193.871C899.577 195.081 898.497 195.686 897.07 195.686C895.657 195.686 894.577 195.081 893.83 193.871C893.084 192.661 892.71 190.913 892.71 188.626C892.71 186.352 893.084 184.61 893.83 183.4C894.577 182.191 895.657 181.586 897.07 181.586ZM894.13 188.626C894.13 190.248 894.277 191.518 894.57 192.435L899.01 183.6C898.543 182.975 897.897 182.663 897.07 182.663C896.15 182.663 895.43 183.155 894.91 184.138C894.39 185.109 894.13 186.605 894.13 188.626ZM897.07 194.589C898.003 194.589 898.73 194.104 899.25 193.133C899.77 192.149 900.03 190.647 900.03 188.626C900.03 186.911 899.863 185.581 899.53 184.637L895.09 193.552C895.57 194.243 896.23 194.589 897.07 194.589Z" fill="url(#paint60_linear_175_198)"/>
<path d="M898.27 217.222H901.21V218.279H893.59V217.222H896.99V206.014L893.75 207.948L893.19 207.051L897.19 204.578H898.27V217.222Z" fill="url(#paint61_linear_175_198)"/>
<path d="M897.07 227.171C898.497 227.171 899.577 227.776 900.31 228.986C901.057 230.183 901.43 231.924 901.43 234.211C901.43 236.498 901.057 238.247 900.31 239.457C899.577 240.666 898.497 241.271 897.07 241.271C895.657 241.271 894.577 240.666 893.83 239.457C893.084 238.247 892.71 236.498 892.71 234.211C892.71 231.938 893.084 230.196 893.83 228.986C894.577 227.776 895.657 227.171 897.07 227.171ZM894.13 234.211C894.13 235.833 894.277 237.103 894.57 238.021L899.01 229.186C898.543 228.561 897.897 228.248 897.07 228.248C896.15 228.248 895.43 228.74 894.91 229.724C894.39 230.695 894.13 232.19 894.13 234.211ZM897.07 240.174C898.003 240.174 898.73 239.689 899.25 238.719C899.77 237.735 900.03 236.232 900.03 234.211C900.03 232.496 899.863 231.167 899.53 230.223L895.09 239.137C895.57 239.829 896.23 240.174 897.07 240.174Z" fill="url(#paint62_linear_175_198)"/>
<path d="M897.07 249.964C898.497 249.964 899.577 250.569 900.31 251.779C901.057 252.976 901.43 254.717 901.43 257.004C901.43 259.291 901.057 261.039 900.31 262.249C899.577 263.459 898.497 264.064 897.07 264.064C895.657 264.064 894.577 263.459 893.83 262.249C893.084 261.039 892.71 259.291 892.71 257.004C892.71 254.731 893.084 252.989 893.83 251.779C894.577 250.569 895.657 249.964 897.07 249.964ZM894.13 257.004C894.13 258.626 894.277 259.896 894.57 260.813L899.01 251.978C898.543 251.353 897.897 251.041 897.07 251.041C896.15 251.041 895.43 251.533 894.91 252.517C894.39 253.487 894.13 254.983 894.13 257.004ZM897.07 262.967C898.003 262.967 898.73 262.482 899.25 261.511C899.77 260.528 900.03 259.025 900.03 257.004C900.03 255.289 899.863 253.959 899.53 253.015L895.09 261.93C895.57 262.622 896.23 262.967 897.07 262.967Z" fill="url(#paint63_linear_175_198)"/>
<path d="M898.27 285.601H901.21V286.658H893.59V285.601H896.99V274.392L893.75 276.327L893.19 275.429L897.19 272.956H898.27V285.601Z" fill="url(#paint64_linear_175_198)"/>
<path d="M897.07 295.55C898.497 295.55 899.577 296.155 900.31 297.365C901.057 298.561 901.43 300.303 901.43 302.59C901.43 304.877 901.057 306.625 900.31 307.835C899.577 309.045 898.497 309.65 897.07 309.65C895.657 309.65 894.577 309.045 893.83 307.835C893.084 306.625 892.71 304.877 892.71 302.59C892.71 300.316 893.084 298.574 893.83 297.365C894.577 296.155 895.657 295.55 897.07 295.55ZM894.13 302.59C894.13 304.212 894.277 305.482 894.57 306.399L899.01 297.564C898.543 296.939 897.897 296.627 897.07 296.627C896.15 296.627 895.43 297.119 894.91 298.102C894.39 299.073 894.13 300.569 894.13 302.59ZM897.07 308.553C898.003 308.553 898.73 308.068 899.25 307.097C899.77 306.113 900.03 304.611 900.03 302.59C900.03 300.875 899.863 299.545 899.53 298.601L895.09 307.516C895.57 308.207 896.23 308.553 897.07 308.553Z" fill="url(#paint65_linear_175_198)"/>
<path d="M898.27 331.186H901.21V332.243H893.59V331.186H896.99V319.978L893.75 321.912L893.19 321.015L897.19 318.542H898.27V331.186Z" fill="url(#paint66_linear_175_198)"/>
<path d="M897.07 341.135C898.497 341.135 899.577 341.74 900.31 342.95C901.057 344.147 901.43 345.888 901.43 348.175C901.43 350.462 901.057 352.211 900.31 353.421C899.577 354.63 898.497 355.235 897.07 355.235C895.657 355.235 894.577 354.63 893.83 353.421C893.084 352.211 892.71 350.462 892.71 348.175C892.71 345.902 893.084 344.16 893.83 342.95C894.577 341.74 895.657 341.135 897.07 341.135ZM894.13 348.175C894.13 349.797 894.277 351.067 894.57 351.985L899.01 343.15C898.543 342.525 897.897 342.212 897.07 342.212C896.15 342.212 895.43 342.704 894.91 343.688C894.39 344.659 894.13 346.154 894.13 348.175ZM897.07 354.139C898.003 354.139 898.73 353.653 899.25 352.683C899.77 351.699 900.03 350.196 900.03 348.175C900.03 346.46 899.863 345.131 899.53 344.187L895.09 353.101C895.57 353.793 896.23 354.139 897.07 354.139Z" fill="url(#paint67_linear_175_198)"/>
<path d="M897.07 363.928C898.497 363.928 899.577 364.533 900.31 365.743C901.057 366.94 901.43 368.681 901.43 370.968C901.43 373.255 901.057 375.003 900.31 376.213C899.577 377.423 898.497 378.028 897.07 378.028C895.657 378.028 894.577 377.423 893.83 376.213C893.084 375.003 892.71 373.255 892.71 370.968C892.71 368.695 893.084 366.953 893.83 365.743C894.577 364.533 895.657 363.928 897.07 363.928ZM894.13 370.968C894.13 372.59 894.277 373.86 894.57 374.777L899.01 365.942C898.543 365.317 897.897 365.005 897.07 365.005C896.15 365.005 895.43 365.497 894.91 366.481C894.39 367.451 894.13 368.947 894.13 370.968ZM897.07 376.931C898.003 376.931 898.73 376.446 899.25 375.475C899.77 374.492 900.03 372.989 900.03 370.968C900.03 369.253 899.863 367.923 899.53 366.979L895.09 375.894C895.57 376.586 896.23 376.931 897.07 376.931Z" fill="url(#paint68_linear_175_198)"/>
<path d="M898.27 399.565H901.21V400.622H893.59V399.565H896.99V388.356L893.75 390.291L893.19 389.393L897.19 386.92H898.27V399.565Z" fill="url(#paint69_linear_175_198)"/>
<path d="M897.07 409.514C898.497 409.514 899.577 410.119 900.31 411.329C901.057 412.525 901.43 414.267 901.43 416.554C901.43 418.841 901.057 420.589 900.31 421.799C899.577 423.009 898.497 423.614 897.07 423.614C895.657 423.614 894.577 423.009 893.83 421.799C893.084 420.589 892.71 418.841 892.71 416.554C892.71 414.28 893.084 412.538 893.83 411.329C894.577 410.119 895.657 409.514 897.07 409.514ZM894.13 416.554C894.13 418.176 894.277 419.446 894.57 420.363L899.01 411.528C898.543 410.903 897.897 410.591 897.07 410.591C896.15 410.591 895.43 411.083 894.91 412.066C894.39 413.037 894.13 414.533 894.13 416.554ZM897.07 422.517C898.003 422.517 898.73 422.032 899.25 421.061C899.77 420.077 900.03 418.575 900.03 416.554C900.03 414.839 899.863 413.509 899.53 412.565L895.09 421.48C895.57 422.171 896.23 422.517 897.07 422.517Z" fill="url(#paint70_linear_175_198)"/>
<path d="M898.27 445.15H901.21V446.207H893.59V445.15H896.99V433.942L893.75 435.876L893.19 434.979L897.19 432.506H898.27V445.15Z" fill="url(#paint71_linear_175_198)"/>
<path d="M898.27 467.943H901.21V469H893.59V467.943H896.99V456.735L893.75 458.669L893.19 457.772L897.19 455.299H898.27V467.943Z" fill="url(#paint72_linear_175_198)"/>
<path d="M841.36 204.378C842.786 204.378 843.866 204.983 844.599 206.193C845.346 207.39 845.719 209.132 845.719 211.419C845.719 213.705 845.346 215.454 844.599 216.664C843.866 217.874 842.786 218.479 841.36 218.479C839.946 218.479 838.867 217.874 838.12 216.664C837.373 215.454 837 213.705 837 211.419C837 209.145 837.373 207.403 838.12 206.193C838.867 204.983 839.946 204.378 841.36 204.378ZM838.42 211.419C838.42 213.041 838.567 214.31 838.86 215.228L843.3 206.393C842.833 205.768 842.186 205.455 841.36 205.455C840.44 205.455 839.72 205.947 839.2 206.931C838.68 207.902 838.42 209.398 838.42 211.419ZM841.36 217.382C842.293 217.382 843.02 216.896 843.54 215.926C844.06 214.942 844.319 213.44 844.319 211.419C844.319 209.703 844.153 208.374 843.82 207.43L839.38 216.345C839.86 217.036 840.52 217.382 841.36 217.382Z" fill="url(#paint73_linear_175_198)"/>
<path d="M841.36 227.171C842.786 227.171 843.866 227.776 844.599 228.986C845.346 230.183 845.719 231.924 845.719 234.211C845.719 236.498 845.346 238.247 844.599 239.457C843.866 240.666 842.786 241.271 841.36 241.271C839.946 241.271 838.867 240.666 838.12 239.457C837.373 238.247 837 236.498 837 234.211C837 231.938 837.373 230.196 838.12 228.986C838.867 227.776 839.946 227.171 841.36 227.171ZM838.42 234.211C838.42 235.833 838.567 237.103 838.86 238.021L843.3 229.186C842.833 228.561 842.186 228.248 841.36 228.248C840.44 228.248 839.72 228.74 839.2 229.724C838.68 230.695 838.42 232.19 838.42 234.211ZM841.36 240.174C842.293 240.174 843.02 239.689 843.54 238.719C844.06 237.735 844.319 236.232 844.319 234.211C844.319 232.496 844.153 231.167 843.82 230.223L839.38 239.137C839.86 239.829 840.52 240.174 841.36 240.174Z" fill="url(#paint74_linear_175_198)"/>
<path d="M842.56 262.808H845.499V263.865H837.88V262.808H841.28V251.599L838.04 253.534L837.48 252.636L841.48 250.163H842.56V262.808Z" fill="url(#paint75_linear_175_198)"/>
<path d="M841.36 272.757C842.786 272.757 843.866 273.362 844.599 274.572C845.346 275.768 845.719 277.51 845.719 279.797C845.719 282.084 845.346 283.832 844.599 285.042C843.866 286.252 842.786 286.857 841.36 286.857C839.946 286.857 838.867 286.252 838.12 285.042C837.373 283.832 837 282.084 837 279.797C837 277.523 837.373 275.782 838.12 274.572C838.867 273.362 839.946 272.757 841.36 272.757ZM838.42 279.797C838.42 281.419 838.567 282.689 838.86 283.606L843.3 274.771C842.833 274.146 842.186 273.834 841.36 273.834C840.44 273.834 839.72 274.326 839.2 275.31C838.68 276.28 838.42 277.776 838.42 279.797ZM841.36 285.76C842.293 285.76 843.02 285.275 843.54 284.304C844.06 283.32 844.319 281.818 844.319 279.797C844.319 278.082 844.153 276.752 843.82 275.808L839.38 284.723C839.86 285.414 840.52 285.76 841.36 285.76Z" fill="url(#paint76_linear_175_198)"/>
<path d="M842.56 308.393H845.499V309.45H837.88V308.393H841.28V297.185L838.04 299.12L837.48 298.222L841.48 295.749H842.56V308.393Z" fill="url(#paint77_linear_175_198)"/>
<path d="M842.56 331.186H845.499V332.243H837.88V331.186H841.28V319.978L838.04 321.912L837.48 321.015L841.48 318.542H842.56V331.186Z" fill="url(#paint78_linear_175_198)"/>
<path d="M879.7 171.637H882.64V172.694H875.02V171.637H878.42V160.428L875.18 162.363L874.62 161.465L878.62 158.992H879.7V171.637Z" fill="url(#paint79_linear_175_198)"/>
<path d="M878.5 181.586C879.927 181.586 881.006 182.191 881.74 183.4C882.486 184.597 882.86 186.339 882.86 188.626C882.86 190.913 882.486 192.661 881.74 193.871C881.006 195.081 879.927 195.686 878.5 195.686C877.087 195.686 876.007 195.081 875.26 193.871C874.514 192.661 874.14 190.913 874.14 188.626C874.14 186.352 874.514 184.61 875.26 183.4C876.007 182.191 877.087 181.586 878.5 181.586ZM875.56 188.626C875.56 190.248 875.707 191.518 876 192.435L880.44 183.6C879.973 182.975 879.327 182.663 878.5 182.663C877.58 182.663 876.86 183.155 876.34 184.138C875.82 185.109 875.56 186.605 875.56 188.626ZM878.5 194.589C879.433 194.589 880.16 194.104 880.68 193.133C881.2 192.149 881.46 190.647 881.46 188.626C881.46 186.911 881.293 185.581 880.96 184.637L876.52 193.552C877 194.243 877.66 194.589 878.5 194.589Z" fill="url(#paint80_linear_175_198)"/>
<path d="M879.7 217.222H882.64V218.279H875.02V217.222H878.42V206.014L875.18 207.948L874.62 207.051L878.62 204.578H879.7V217.222Z" fill="url(#paint81_linear_175_198)"/>
<path d="M879.7 240.015H882.64V241.072H875.02V240.015H878.42V228.807L875.18 230.741L874.62 229.844L878.62 227.371H879.7V240.015Z" fill="url(#paint82_linear_175_198)"/>
<path d="M878.5 249.964C879.927 249.964 881.006 250.569 881.74 251.779C882.486 252.976 882.86 254.717 882.86 257.004C882.86 259.291 882.486 261.039 881.74 262.249C881.006 263.459 879.927 264.064 878.5 264.064C877.087 264.064 876.007 263.459 875.26 262.249C874.514 261.039 874.14 259.291 874.14 257.004C874.14 254.731 874.514 252.989 875.26 251.779C876.007 250.569 877.087 249.964 878.5 249.964ZM875.56 257.004C875.56 258.626 875.707 259.896 876 260.813L880.44 251.978C879.973 251.353 879.327 251.041 878.5 251.041C877.58 251.041 876.86 251.533 876.34 252.517C875.82 253.487 875.56 254.983 875.56 257.004ZM878.5 262.967C879.433 262.967 880.16 262.482 880.68 261.511C881.2 260.528 881.46 259.025 881.46 257.004C881.46 255.289 881.293 253.959 880.96 253.015L876.52 261.93C877 262.622 877.66 262.967 878.5 262.967Z" fill="url(#paint83_linear_175_198)"/>
<path d="M879.7 285.601H882.64V286.658H875.02V285.601H878.42V274.392L875.18 276.327L874.62 275.429L878.62 272.956H879.7V285.601Z" fill="url(#paint84_linear_175_198)"/>
<path d="M879.7 308.393H882.64V309.45H875.02V308.393H878.42V297.185L875.18 299.12L874.62 298.222L878.62 295.749H879.7V308.393Z" fill="url(#paint85_linear_175_198)"/>
<path d="M878.5 318.342C879.927 318.342 881.006 318.947 881.74 320.157C882.486 321.354 882.86 323.096 882.86 325.383C882.86 327.669 882.486 329.418 881.74 330.628C881.006 331.838 879.927 332.443 878.5 332.443C877.087 332.443 876.007 331.838 875.26 330.628C874.514 329.418 874.14 327.669 874.14 325.383C874.14 323.109 874.514 321.367 875.26 320.157C876.007 318.947 877.087 318.342 878.5 318.342ZM875.56 325.383C875.56 327.005 875.707 328.274 876 329.192L880.44 320.357C879.973 319.732 879.327 319.419 878.5 319.419C877.58 319.419 876.86 319.911 876.34 320.895C875.82 321.866 875.56 323.362 875.56 325.383ZM878.5 331.346C879.433 331.346 880.16 330.86 880.68 329.89C881.2 328.906 881.46 327.404 881.46 325.383C881.46 323.667 881.293 322.338 880.96 321.394L876.52 330.309C877 331 877.66 331.346 878.5 331.346Z" fill="url(#paint86_linear_175_198)"/>
<path d="M879.7 353.979H882.64V355.036H875.02V353.979H878.42V342.771L875.18 344.705L874.62 343.808L878.62 341.335H879.7V353.979Z" fill="url(#paint87_linear_175_198)"/>
<path d="M878.5 363.928C879.927 363.928 881.006 364.533 881.74 365.743C882.486 366.94 882.86 368.681 882.86 370.968C882.86 373.255 882.486 375.003 881.74 376.213C881.006 377.423 879.927 378.028 878.5 378.028C877.087 378.028 876.007 377.423 875.26 376.213C874.514 375.003 874.14 373.255 874.14 370.968C874.14 368.695 874.514 366.953 875.26 365.743C876.007 364.533 877.087 363.928 878.5 363.928ZM875.56 370.968C875.56 372.59 875.707 373.86 876 374.777L880.44 365.942C879.973 365.317 879.327 365.005 878.5 365.005C877.58 365.005 876.86 365.497 876.34 366.481C875.82 367.451 875.56 368.947 875.56 370.968ZM878.5 376.931C879.433 376.931 880.16 376.446 880.68 375.475C881.2 374.492 881.46 372.989 881.46 370.968C881.46 369.253 881.293 367.923 880.96 366.979L876.52 375.894C877 376.586 877.66 376.931 878.5 376.931Z" fill="url(#paint88_linear_175_198)"/>
<path d="M915.64 158.793C917.067 158.793 918.147 159.398 918.88 160.608C919.627 161.804 920 163.546 920 165.833C920 168.12 919.627 169.868 918.88 171.078C918.147 172.288 917.067 172.893 915.64 172.893C914.227 172.893 913.147 172.288 912.401 171.078C911.654 169.868 911.281 168.12 911.281 165.833C911.281 163.559 911.654 161.818 912.401 160.608C913.147 159.398 914.227 158.793 915.64 158.793ZM912.7 165.833C912.7 167.455 912.847 168.725 913.14 169.642L917.58 160.807C917.114 160.182 916.467 159.87 915.64 159.87C914.72 159.87 914 160.362 913.48 161.346C912.96 162.316 912.7 163.812 912.7 165.833ZM915.64 171.796C916.574 171.796 917.3 171.311 917.82 170.34C918.34 169.356 918.6 167.854 918.6 165.833C918.6 164.118 918.433 162.788 918.1 161.844L913.66 170.759C914.14 171.45 914.8 171.796 915.64 171.796Z" fill="url(#paint89_linear_175_198)"/>
<path d="M916.84 194.429H919.78V195.486H912.161V194.429H915.56V183.221L912.321 185.156L911.761 184.258L915.76 181.785H916.84V194.429Z" fill="url(#paint90_linear_175_198)"/>
<path d="M916.84 217.222H919.78V218.279H912.161V217.222H915.56V206.014L912.321 207.948L911.761 207.051L915.76 204.578H916.84V217.222Z" fill="url(#paint91_linear_175_198)"/>
<path d="M915.64 227.171C917.067 227.171 918.147 227.776 918.88 228.986C919.627 230.183 920 231.924 920 234.211C920 236.498 919.627 238.247 918.88 239.457C918.147 240.666 917.067 241.271 915.64 241.271C914.227 241.271 913.147 240.666 912.401 239.457C911.654 238.247 911.281 236.498 911.281 234.211C911.281 231.938 911.654 230.196 912.401 228.986C913.147 227.776 914.227 227.171 915.64 227.171ZM912.7 234.211C912.7 235.833 912.847 237.103 913.14 238.021L917.58 229.186C917.114 228.561 916.467 228.248 915.64 228.248C914.72 228.248 914 228.74 913.48 229.724C912.96 230.695 912.7 232.19 912.7 234.211ZM915.64 240.174C916.574 240.174 917.3 239.689 917.82 238.719C918.34 237.735 918.6 236.232 918.6 234.211C918.6 232.496 918.433 231.167 918.1 230.223L913.66 239.137C914.14 239.829 914.8 240.174 915.64 240.174Z" fill="url(#paint92_linear_175_198)"/>
<path d="M915.64 249.964C917.067 249.964 918.147 250.569 918.88 251.779C919.627 252.976 920 254.717 920 257.004C920 259.291 919.627 261.039 918.88 262.249C918.147 263.459 917.067 264.064 915.64 264.064C914.227 264.064 913.147 263.459 912.401 262.249C911.654 261.039 911.281 259.291 911.281 257.004C911.281 254.731 911.654 252.989 912.401 251.779C913.147 250.569 914.227 249.964 915.64 249.964ZM912.7 257.004C912.7 258.626 912.847 259.896 913.14 260.813L917.58 251.978C917.114 251.353 916.467 251.041 915.64 251.041C914.72 251.041 914 251.533 913.48 252.517C912.96 253.487 912.7 254.983 912.7 257.004ZM915.64 262.967C916.574 262.967 917.3 262.482 917.82 261.511C918.34 260.528 918.6 259.025 918.6 257.004C918.6 255.289 918.433 253.959 918.1 253.015L913.66 261.93C914.14 262.622 914.8 262.967 915.64 262.967Z" fill="url(#paint93_linear_175_198)"/>
</g>
<defs>
<filter id="filter0_f_175_198" x="-618.19" y="-550.19" width="2141.38" height="1500.38" filterUnits="userSpaceOnUse" color-interpolation-filters="sRGB">
<feFlood flood-opacity="0" result="BackgroundImageFix"/>
<feBlend mode="normal" in="SourceGraphic" in2="BackgroundImageFix" result="shape"/>
<feGaussianBlur stdDeviation="200.095" result="effect1_foregroundBlur_175_198"/>
</filter>
<linearGradient id="paint0_linear_175_198" x1="-7.5" y1="436" x2="-7.5" y2="747.381" gradientUnits="userSpaceOnUse">
<stop stop-color="#F7DD43"/>
<stop offset="1" stop-color="#F7DD43" stop-opacity="0"/>
</linearGradient>
<linearGradient id="paint1_linear_175_198" x1="-7.5" y1="436" x2="-7.5" y2="747.381" gradientUnits="userSpaceOnUse">
<stop stop-color="#F7DD43"/>
<stop offset="1" stop-color="#F7DD43" stop-opacity="0"/>
</linearGradient>
<linearGradient id="paint2_linear_175_198" x1="-7.5" y1="436" x2="-7.5" y2="747.381" gradientUnits="userSpaceOnUse">
<stop stop-color="#F7DD43"/>
<stop offset="1" stop-color="#F7DD43" stop-opacity="0"/>
</linearGradient>
<linearGradient id="paint3_linear_175_198" x1="-7.5" y1="436" x2="-7.5" y2="747.381" gradientUnits="userSpaceOnUse">
<stop stop-color="#F7DD43"/>
<stop offset="1" stop-color="#F7DD43" stop-opacity="0"/>
</linearGradient>
<linearGradient id="paint4_linear_175_198" x1="-7.5" y1="436" x2="-7.5" y2="747.381" gradientUnits="userSpaceOnUse">
<stop stop-color="#F7DD43"/>
<stop offset="1" stop-color="#F7DD43" stop-opacity="0"/>
</linearGradient>
<linearGradient id="paint5_linear_175_198" x1="-7.5" y1="436" x2="-7.5" y2="747.381" gradientUnits="userSpaceOnUse">
<stop stop-color="#F7DD43"/>
<stop offset="1" stop-color="#F7DD43" stop-opacity="0"/>
</linearGradient>
<linearGradient id="paint6_linear_175_198" x1="-7.5" y1="436" x2="-7.5" y2="747.381" gradientUnits="userSpaceOnUse">
<stop stop-color="#F7DD43"/>
<stop offset="1" stop-color="#F7DD43" stop-opacity="0"/>
</linearGradient>
<linearGradient id="paint7_linear_175_198" x1="-7.5" y1="436" x2="-7.5" y2="747.381" gradientUnits="userSpaceOnUse">
<stop stop-color="#F7DD43"/>
<stop offset="1" stop-color="#F7DD43" stop-opacity="0"/>
</linearGradient>
<linearGradient id="paint8_linear_175_198" x1="-7.5" y1="436" x2="-7.5" y2="747.381" gradientUnits="userSpaceOnUse">
<stop stop-color="#F7DD43"/>
<stop offset="1" stop-color="#F7DD43" stop-opacity="0"/>
</linearGradient>
<linearGradient id="paint9_linear_175_198" x1="-7.5" y1="436" x2="-7.5" y2="747.381" gradientUnits="userSpaceOnUse">
<stop stop-color="#F7DD43"/>
<stop offset="1" stop-color="#F7DD43" stop-opacity="0"/>
</linearGradient>
<linearGradient id="paint10_linear_175_198" x1="-7.5" y1="436" x2="-7.5" y2="747.381" gradientUnits="userSpaceOnUse">
<stop stop-color="#F7DD43"/>
<stop offset="1" stop-color="#F7DD43" stop-opacity="0"/>
</linearGradient>
<linearGradient id="paint11_linear_175_198" x1="-7.5" y1="436" x2="-7.5" y2="747.381" gradientUnits="userSpaceOnUse">
<stop stop-color="#F7DD43"/>
<stop offset="1" stop-color="#F7DD43" stop-opacity="0"/>
</linearGradient>
<linearGradient id="paint12_linear_175_198" x1="-7.5" y1="436" x2="-7.5" y2="747.381" gradientUnits="userSpaceOnUse">
<stop stop-color="#F7DD43"/>
<stop offset="1" stop-color="#F7DD43" stop-opacity="0"/>
</linearGradient>
<linearGradient id="paint13_linear_175_198" x1="-7.5" y1="436" x2="-7.5" y2="747.381" gradientUnits="userSpaceOnUse">
<stop stop-color="#F7DD43"/>
<stop offset="1" stop-color="#F7DD43" stop-opacity="0"/>
</linearGradient>
<linearGradient id="paint14_linear_175_198" x1="-7.5" y1="436" x2="-7.5" y2="747.381" gradientUnits="userSpaceOnUse">
<stop stop-color="#F7DD43"/>
<stop offset="1" stop-color="#F7DD43" stop-opacity="0"/>
</linearGradient>
<linearGradient id="paint15_linear_175_198" x1="-7.5" y1="436" x2="-7.5" y2="747.381" gradientUnits="userSpaceOnUse">
<stop stop-color="#F7DD43"/>
<stop offset="1" stop-color="#F7DD43" stop-opacity="0"/>
</linearGradient>
<linearGradient id="paint16_linear_175_198" x1="-7.5" y1="436" x2="-7.5" y2="747.381" gradientUnits="userSpaceOnUse">
<stop stop-color="#F7DD43"/>
<stop offset="1" stop-color="#F7DD43" stop-opacity="0"/>
</linearGradient>
<linearGradient id="paint17_linear_175_198" x1="-7.5" y1="436" x2="-7.5" y2="747.381" gradientUnits="userSpaceOnUse">
<stop stop-color="#F7DD43"/>
<stop offset="1" stop-color="#F7DD43" stop-opacity="0"/>
</linearGradient>
<linearGradient id="paint18_linear_175_198" x1="-7.5" y1="436" x2="-7.5" y2="747.381" gradientUnits="userSpaceOnUse">
<stop stop-color="#F7DD43"/>
<stop offset="1" stop-color="#F7DD43" stop-opacity="0"/>
</linearGradient>
<linearGradient id="paint19_linear_175_198" x1="-7.5" y1="436" x2="-7.5" y2="747.381" gradientUnits="userSpaceOnUse">
<stop stop-color="#F7DD43"/>
<stop offset="1" stop-color="#F7DD43" stop-opacity="0"/>
</linearGradient>
<linearGradient id="paint20_linear_175_198" x1="-7.5" y1="436" x2="-7.5" y2="747.381" gradientUnits="userSpaceOnUse">
<stop stop-color="#F7DD43"/>
<stop offset="1" stop-color="#F7DD43" stop-opacity="0"/>
</linearGradient>
<linearGradient id="paint21_linear_175_198" x1="-7.5" y1="436" x2="-7.5" y2="747.381" gradientUnits="userSpaceOnUse">
<stop stop-color="#F7DD43"/>
<stop offset="1" stop-color="#F7DD43" stop-opacity="0"/>
</linearGradient>
<linearGradient id="paint22_linear_175_198" x1="-7.5" y1="436" x2="-7.5" y2="747.381" gradientUnits="userSpaceOnUse">
<stop stop-color="#F7DD43"/>
<stop offset="1" stop-color="#F7DD43" stop-opacity="0"/>
</linearGradient>
<linearGradient id="paint23_linear_175_198" x1="-7.5" y1="436" x2="-7.5" y2="747.381" gradientUnits="userSpaceOnUse">
<stop stop-color="#F7DD43"/>
<stop offset="1" stop-color="#F7DD43" stop-opacity="0"/>
</linearGradient>
<linearGradient id="paint24_linear_175_198" x1="-7.5" y1="436" x2="-7.5" y2="747.381" gradientUnits="userSpaceOnUse">
<stop stop-color="#F7DD43"/>
<stop offset="1" stop-color="#F7DD43" stop-opacity="0"/>
</linearGradient>
<linearGradient id="paint25_linear_175_198" x1="-7.5" y1="436" x2="-7.5" y2="747.381" gradientUnits="userSpaceOnUse">
<stop stop-color="#F7DD43"/>
<stop offset="1" stop-color="#F7DD43" stop-opacity="0"/>
</linearGradient>
<linearGradient id="paint26_linear_175_198" x1="-7.5" y1="436" x2="-7.5" y2="747.381" gradientUnits="userSpaceOnUse">
<stop stop-color="#F7DD43"/>
<stop offset="1" stop-color="#F7DD43" stop-opacity="0"/>
</linearGradient>
<linearGradient id="paint27_linear_175_198" x1="-7.5" y1="436" x2="-7.5" y2="747.381" gradientUnits="userSpaceOnUse">
<stop stop-color="#F7DD43"/>
<stop offset="1" stop-color="#F7DD43" stop-opacity="0"/>
</linearGradient>
<linearGradient id="paint28_linear_175_198" x1="-7.5" y1="436" x2="-7.5" y2="747.381" gradientUnits="userSpaceOnUse">
<stop stop-color="#F7DD43"/>
<stop offset="1" stop-color="#F7DD43" stop-opacity="0"/>
</linearGradient>
<linearGradient id="paint29_linear_175_198" x1="-7.5" y1="436" x2="-7.5" y2="747.381" gradientUnits="userSpaceOnUse">
<stop stop-color="#F7DD43"/>
<stop offset="1" stop-color="#F7DD43" stop-opacity="0"/>
</linearGradient>
<linearGradient id="paint30_linear_175_198" x1="-7.5" y1="436" x2="-7.5" y2="747.381" gradientUnits="userSpaceOnUse">
<stop stop-color="#F7DD43"/>
<stop offset="1" stop-color="#F7DD43" stop-opacity="0"/>
</linearGradient>
<linearGradient id="paint31_linear_175_198" x1="-7.5" y1="436" x2="-7.5" y2="747.381" gradientUnits="userSpaceOnUse">
<stop stop-color="#F7DD43"/>
<stop offset="1" stop-color="#F7DD43" stop-opacity="0"/>
</linearGradient>
<linearGradient id="paint32_linear_175_198" x1="-7.5" y1="436" x2="-7.5" y2="747.381" gradientUnits="userSpaceOnUse">
<stop stop-color="#F7DD43"/>
<stop offset="1" stop-color="#F7DD43" stop-opacity="0"/>
</linearGradient>
<linearGradient id="paint33_linear_175_198" x1="-7.5" y1="436" x2="-7.5" y2="747.381" gradientUnits="userSpaceOnUse">
<stop stop-color="#F7DD43"/>
<stop offset="1" stop-color="#F7DD43" stop-opacity="0"/>
</linearGradient>
<linearGradient id="paint34_linear_175_198" x1="-7.5" y1="436" x2="-7.5" y2="747.381" gradientUnits="userSpaceOnUse">
<stop stop-color="#F7DD43"/>
<stop offset="1" stop-color="#F7DD43" stop-opacity="0"/>
</linearGradient>
<linearGradient id="paint35_linear_175_198" x1="-7.5" y1="436" x2="-7.5" y2="747.381" gradientUnits="userSpaceOnUse">
<stop stop-color="#F7DD43"/>
<stop offset="1" stop-color="#F7DD43" stop-opacity="0"/>
</linearGradient>
<linearGradient id="paint36_linear_175_198" x1="-7.5" y1="436" x2="-7.5" y2="747.381" gradientUnits="userSpaceOnUse">
<stop stop-color="#F7DD43"/>
<stop offset="1" stop-color="#F7DD43" stop-opacity="0"/>
</linearGradient>
<linearGradient id="paint37_linear_175_198" x1="-7.5" y1="436" x2="-7.5" y2="747.381" gradientUnits="userSpaceOnUse">
<stop stop-color="#F7DD43"/>
<stop offset="1" stop-color="#F7DD43" stop-opacity="0"/>
</linearGradient>
<linearGradient id="paint38_linear_175_198" x1="-7.5" y1="436" x2="-7.5" y2="747.381" gradientUnits="userSpaceOnUse">
<stop stop-color="#F7DD43"/>
<stop offset="1" stop-color="#F7DD43" stop-opacity="0"/>
</linearGradient>
<linearGradient id="paint39_linear_175_198" x1="-7.5" y1="436" x2="-7.5" y2="747.381" gradientUnits="userSpaceOnUse">
<stop stop-color="#F7DD43"/>
<stop offset="1" stop-color="#F7DD43" stop-opacity="0"/>
</linearGradient>
<linearGradient id="paint40_linear_175_198" x1="-7.5" y1="436" x2="-7.5" y2="747.381" gradientUnits="userSpaceOnUse">
<stop stop-color="#F7DD43"/>
<stop offset="1" stop-color="#F7DD43" stop-opacity="0"/>
</linearGradient>
<linearGradient id="paint41_linear_175_198" x1="-7.5" y1="436" x2="-7.5" y2="747.381" gradientUnits="userSpaceOnUse">
<stop stop-color="#F7DD43"/>
<stop offset="1" stop-color="#F7DD43" stop-opacity="0"/>
</linearGradient>
<linearGradient id="paint42_linear_175_198" x1="-7.5" y1="436" x2="-7.5" y2="747.381" gradientUnits="userSpaceOnUse">
<stop stop-color="#F7DD43"/>
<stop offset="1" stop-color="#F7DD43" stop-opacity="0"/>
</linearGradient>
<linearGradient id="paint43_linear_175_198" x1="-7.5" y1="436" x2="-7.5" y2="747.381" gradientUnits="userSpaceOnUse">
<stop stop-color="#F7DD43"/>
<stop offset="1" stop-color="#F7DD43" stop-opacity="0"/>
</linearGradient>
<linearGradient id="paint44_linear_175_198" x1="-7.5" y1="436" x2="-7.5" y2="747.381" gradientUnits="userSpaceOnUse">
<stop stop-color="#F7DD43"/>
<stop offset="1" stop-color="#F7DD43" stop-opacity="0"/>
</linearGradient>
<linearGradient id="paint45_linear_175_198" x1="-7.5" y1="436" x2="-7.5" y2="747.381" gradientUnits="userSpaceOnUse">
<stop stop-color="#F7DD43"/>
<stop offset="1" stop-color="#F7DD43" stop-opacity="0"/>
</linearGradient>
<linearGradient id="paint46_linear_175_198" x1="-7.5" y1="436" x2="-7.5" y2="747.381" gradientUnits="userSpaceOnUse">
<stop stop-color="#F7DD43"/>
<stop offset="1" stop-color="#F7DD43" stop-opacity="0"/>
</linearGradient>
<linearGradient id="paint47_linear_175_198" x1="878.5" y1="136" x2="878.5" y2="434.818" gradientUnits="userSpaceOnUse">
<stop stop-color="#F7DD43"/>
<stop offset="1" stop-color="#F7DD43" stop-opacity="0"/>
</linearGradient>
<linearGradient id="paint48_linear_175_198" x1="878.5" y1="136" x2="878.5" y2="434.818" gradientUnits="userSpaceOnUse">
<stop stop-color="#F7DD43"/>
<stop offset="1" stop-color="#F7DD43" stop-opacity="0"/>
</linearGradient>
<linearGradient id="paint49_linear_175_198" x1="878.5" y1="136" x2="878.5" y2="434.818" gradientUnits="userSpaceOnUse">
<stop stop-color="#F7DD43"/>
<stop offset="1" stop-color="#F7DD43" stop-opacity="0"/>
</linearGradient>
<linearGradient id="paint50_linear_175_198" x1="878.5" y1="136" x2="878.5" y2="434.818" gradientUnits="userSpaceOnUse">
<stop stop-color="#F7DD43"/>
<stop offset="1" stop-color="#F7DD43" stop-opacity="0"/>
</linearGradient>
<linearGradient id="paint51_linear_175_198" x1="878.5" y1="136" x2="878.5" y2="434.818" gradientUnits="userSpaceOnUse">
<stop stop-color="#F7DD43"/>
<stop offset="1" stop-color="#F7DD43" stop-opacity="0"/>
</linearGradient>
<linearGradient id="paint52_linear_175_198" x1="878.5" y1="136" x2="878.5" y2="434.818" gradientUnits="userSpaceOnUse">
<stop stop-color="#F7DD43"/>
<stop offset="1" stop-color="#F7DD43" stop-opacity="0"/>
</linearGradient>
<linearGradient id="paint53_linear_175_198" x1="878.5" y1="136" x2="878.5" y2="434.818" gradientUnits="userSpaceOnUse">
<stop stop-color="#F7DD43"/>
<stop offset="1" stop-color="#F7DD43" stop-opacity="0"/>
</linearGradient>
<linearGradient id="paint54_linear_175_198" x1="878.5" y1="136" x2="878.5" y2="434.818" gradientUnits="userSpaceOnUse">
<stop stop-color="#F7DD43"/>
<stop offset="1" stop-color="#F7DD43" stop-opacity="0"/>
</linearGradient>
<linearGradient id="paint55_linear_175_198" x1="878.5" y1="136" x2="878.5" y2="434.818" gradientUnits="userSpaceOnUse">
<stop stop-color="#F7DD43"/>
<stop offset="1" stop-color="#F7DD43" stop-opacity="0"/>
</linearGradient>
<linearGradient id="paint56_linear_175_198" x1="878.5" y1="136" x2="878.5" y2="434.818" gradientUnits="userSpaceOnUse">
<stop stop-color="#F7DD43"/>
<stop offset="1" stop-color="#F7DD43" stop-opacity="0"/>
</linearGradient>
<linearGradient id="paint57_linear_175_198" x1="878.5" y1="136" x2="878.5" y2="434.818" gradientUnits="userSpaceOnUse">
<stop stop-color="#F7DD43"/>
<stop offset="1" stop-color="#F7DD43" stop-opacity="0"/>
</linearGradient>
<linearGradient id="paint58_linear_175_198" x1="878.5" y1="136" x2="878.5" y2="434.818" gradientUnits="userSpaceOnUse">
<stop stop-color="#F7DD43"/>
<stop offset="1" stop-color="#F7DD43" stop-opacity="0"/>
</linearGradient>
<linearGradient id="paint59_linear_175_198" x1="878.5" y1="136" x2="878.5" y2="434.818" gradientUnits="userSpaceOnUse">
<stop stop-color="#F7DD43"/>
<stop offset="1" stop-color="#F7DD43" stop-opacity="0"/>
</linearGradient>
<linearGradient id="paint60_linear_175_198" x1="878.5" y1="136" x2="878.5" y2="434.818" gradientUnits="userSpaceOnUse">
<stop stop-color="#F7DD43"/>
<stop offset="1" stop-color="#F7DD43" stop-opacity="0"/>
</linearGradient>
<linearGradient id="paint61_linear_175_198" x1="878.5" y1="136" x2="878.5" y2="434.818" gradientUnits="userSpaceOnUse">
<stop stop-color="#F7DD43"/>
<stop offset="1" stop-color="#F7DD43" stop-opacity="0"/>
</linearGradient>
<linearGradient id="paint62_linear_175_198" x1="878.5" y1="136" x2="878.5" y2="434.818" gradientUnits="userSpaceOnUse">
<stop stop-color="#F7DD43"/>
<stop offset="1" stop-color="#F7DD43" stop-opacity="0"/>
</linearGradient>
<linearGradient id="paint63_linear_175_198" x1="878.5" y1="136" x2="878.5" y2="434.818" gradientUnits="userSpaceOnUse">
<stop stop-color="#F7DD43"/>
<stop offset="1" stop-color="#F7DD43" stop-opacity="0"/>
</linearGradient>
<linearGradient id="paint64_linear_175_198" x1="878.5" y1="136" x2="878.5" y2="434.818" gradientUnits="userSpaceOnUse">
<stop stop-color="#F7DD43"/>
<stop offset="1" stop-color="#F7DD43" stop-opacity="0"/>
</linearGradient>
<linearGradient id="paint65_linear_175_198" x1="878.5" y1="136" x2="878.5" y2="434.818" gradientUnits="userSpaceOnUse">
<stop stop-color="#F7DD43"/>
<stop offset="1" stop-color="#F7DD43" stop-opacity="0"/>
</linearGradient>
<linearGradient id="paint66_linear_175_198" x1="878.5" y1="136" x2="878.5" y2="434.818" gradientUnits="userSpaceOnUse">
<stop stop-color="#F7DD43"/>
<stop offset="1" stop-color="#F7DD43" stop-opacity="0"/>
</linearGradient>
<linearGradient id="paint67_linear_175_198" x1="878.5" y1="136" x2="878.5" y2="434.818" gradientUnits="userSpaceOnUse">
<stop stop-color="#F7DD43"/>
<stop offset="1" stop-color="#F7DD43" stop-opacity="0"/>
</linearGradient>
<linearGradient id="paint68_linear_175_198" x1="878.5" y1="136" x2="878.5" y2="434.818" gradientUnits="userSpaceOnUse">
<stop stop-color="#F7DD43"/>
<stop offset="1" stop-color="#F7DD43" stop-opacity="0"/>
</linearGradient>
<linearGradient id="paint69_linear_175_198" x1="878.5" y1="136" x2="878.5" y2="434.818" gradientUnits="userSpaceOnUse">
<stop stop-color="#F7DD43"/>
<stop offset="1" stop-color="#F7DD43" stop-opacity="0"/>
</linearGradient>
<linearGradient id="paint70_linear_175_198" x1="878.5" y1="136" x2="878.5" y2="434.818" gradientUnits="userSpaceOnUse">
<stop stop-color="#F7DD43"/>
<stop offset="1" stop-color="#F7DD43" stop-opacity="0"/>
</linearGradient>
<linearGradient id="paint71_linear_175_198" x1="878.5" y1="136" x2="878.5" y2="434.818" gradientUnits="userSpaceOnUse">
<stop stop-color="#F7DD43"/>
<stop offset="1" stop-color="#F7DD43" stop-opacity="0"/>
</linearGradient>
<linearGradient id="paint72_linear_175_198" x1="878.5" y1="136" x2="878.5" y2="434.818" gradientUnits="userSpaceOnUse">
<stop stop-color="#F7DD43"/>
<stop offset="1" stop-color="#F7DD43" stop-opacity="0"/>
</linearGradient>
<linearGradient id="paint73_linear_175_198" x1="878.5" y1="136" x2="878.5" y2="434.818" gradientUnits="userSpaceOnUse">
<stop stop-color="#F7DD43"/>
<stop offset="1" stop-color="#F7DD43" stop-opacity="0"/>
</linearGradient>
<linearGradient id="paint74_linear_175_198" x1="878.5" y1="136" x2="878.5" y2="434.818" gradientUnits="userSpaceOnUse">
<stop stop-color="#F7DD43"/>
<stop offset="1" stop-color="#F7DD43" stop-opacity="0"/>
</linearGradient>
<linearGradient id="paint75_linear_175_198" x1="878.5" y1="136" x2="878.5" y2="434.818" gradientUnits="userSpaceOnUse">
<stop stop-color="#F7DD43"/>
<stop offset="1" stop-color="#F7DD43" stop-opacity="0"/>
</linearGradient>
<linearGradient id="paint76_linear_175_198" x1="878.5" y1="136" x2="878.5" y2="434.818" gradientUnits="userSpaceOnUse">
<stop stop-color="#F7DD43"/>
<stop offset="1" stop-color="#F7DD43" stop-opacity="0"/>
</linearGradient>
<linearGradient id="paint77_linear_175_198" x1="878.5" y1="136" x2="878.5" y2="434.818" gradientUnits="userSpaceOnUse">
<stop stop-color="#F7DD43"/>
<stop offset="1" stop-color="#F7DD43" stop-opacity="0"/>
</linearGradient>
<linearGradient id="paint78_linear_175_198" x1="878.5" y1="136" x2="878.5" y2="434.818" gradientUnits="userSpaceOnUse">
<stop stop-color="#F7DD43"/>
<stop offset="1" stop-color="#F7DD43" stop-opacity="0"/>
</linearGradient>
<linearGradient id="paint79_linear_175_198" x1="878.5" y1="136" x2="878.5" y2="434.818" gradientUnits="userSpaceOnUse">
<stop stop-color="#F7DD43"/>
<stop offset="1" stop-color="#F7DD43" stop-opacity="0"/>
</linearGradient>
<linearGradient id="paint80_linear_175_198" x1="878.5" y1="136" x2="878.5" y2="434.818" gradientUnits="userSpaceOnUse">
<stop stop-color="#F7DD43"/>
<stop offset="1" stop-color="#F7DD43" stop-opacity="0"/>
</linearGradient>
<linearGradient id="paint81_linear_175_198" x1="878.5" y1="136" x2="878.5" y2="434.818" gradientUnits="userSpaceOnUse">
<stop stop-color="#F7DD43"/>
<stop offset="1" stop-color="#F7DD43" stop-opacity="0"/>
</linearGradient>
<linearGradient id="paint82_linear_175_198" x1="878.5" y1="136" x2="878.5" y2="434.818" gradientUnits="userSpaceOnUse">
<stop stop-color="#F7DD43"/>
<stop offset="1" stop-color="#F7DD43" stop-opacity="0"/>
</linearGradient>
<linearGradient id="paint83_linear_175_198" x1="878.5" y1="136" x2="878.5" y2="434.818" gradientUnits="userSpaceOnUse">
<stop stop-color="#F7DD43"/>
<stop offset="1" stop-color="#F7DD43" stop-opacity="0"/>
</linearGradient>
<linearGradient id="paint84_linear_175_198" x1="878.5" y1="136" x2="878.5" y2="434.818" gradientUnits="userSpaceOnUse">
<stop stop-color="#F7DD43"/>
<stop offset="1" stop-color="#F7DD43" stop-opacity="0"/>
</linearGradient>
<linearGradient id="paint85_linear_175_198" x1="878.5" y1="136" x2="878.5" y2="434.818" gradientUnits="userSpaceOnUse">
<stop stop-color="#F7DD43"/>
<stop offset="1" stop-color="#F7DD43" stop-opacity="0"/>
</linearGradient>
<linearGradient id="paint86_linear_175_198" x1="878.5" y1="136" x2="878.5" y2="434.818" gradientUnits="userSpaceOnUse">
<stop stop-color="#F7DD43"/>
<stop offset="1" stop-color="#F7DD43" stop-opacity="0"/>
</linearGradient>
<linearGradient id="paint87_linear_175_198" x1="878.5" y1="136" x2="878.5" y2="434.818" gradientUnits="userSpaceOnUse">
<stop stop-color="#F7DD43"/>
<stop offset="1" stop-color="#F7DD43" stop-opacity="0"/>
</linearGradient>
<linearGradient id="paint88_linear_175_198" x1="878.5" y1="136" x2="878.5" y2="434.818" gradientUnits="userSpaceOnUse">
<stop stop-color="#F7DD43"/>
<stop offset="1" stop-color="#F7DD43" stop-opacity="0"/>
</linearGradient>
<linearGradient id="paint89_linear_175_198" x1="878.5" y1="136" x2="878.5" y2="434.818" gradientUnits="userSpaceOnUse">
<stop stop-color="#F7DD43"/>
<stop offset="1" stop-color="#F7DD43" stop-opacity="0"/>
</linearGradient>
<linearGradient id="paint90_linear_175_198" x1="878.5" y1="136" x2="878.5" y2="434.818" gradientUnits="userSpaceOnUse">
<stop stop-color="#F7DD43"/>
<stop offset="1" stop-color="#F7DD43" stop-opacity="0"/>
</linearGradient>
<linearGradient id="paint91_linear_175_198" x1="878.5" y1="136" x2="878.5" y2="434.818" gradientUnits="userSpaceOnUse">
<stop stop-color="#F7DD43"/>
<stop offset="1" stop-color="#F7DD43" stop-opacity="0"/>
</linearGradient>
<linearGradient id="paint92_linear_175_198" x1="878.5" y1="136" x2="878.5" y2="434.818" gradientUnits="userSpaceOnUse">
<stop stop-color="#F7DD43"/>
<stop offset="1" stop-color="#F7DD43" stop-opacity="0"/>
</linearGradient>
<linearGradient id="paint93_linear_175_198" x1="878.5" y1="136" x2="878.5" y2="434.818" gradientUnits="userSpaceOnUse">
<stop stop-color="#F7DD43"/>
<stop offset="1" stop-color="#F7DD43" stop-opacity="0"/>
</linearGradient>
</defs>
</svg>
